<svg xmlns="http://www.w3.org/2000/svg" viewBox="0 0 1200 700" width="1200" height="700" font-family="ui-sans-serif, system-ui, -apple-system, BlinkMacSystemFont, 'Inter var', 'Inter', 'Segoe UI', Helvetica, Arial, sans-serif" text-rendering="geometricPrecision" shape-rendering="geometricPrecision">
<defs>
<linearGradient id="g-react-server" x1="0" x2="0" y1="0" y2="1"><stop offset="0" stop-color="#60a5fa" stop-opacity="0.18"/><stop offset="1" stop-color="#60a5fa" stop-opacity="0"/></linearGradient>
<linearGradient id="g-next" x1="0" x2="0" y1="0" y2="1"><stop offset="0" stop-color="#f4f4f5" stop-opacity="0.18"/><stop offset="1" stop-color="#f4f4f5" stop-opacity="0"/></linearGradient>
<linearGradient id="g-tanstack" x1="0" x2="0" y1="0" y2="1"><stop offset="0" stop-color="#f472b6" stop-opacity="0.18"/><stop offset="1" stop-color="#f472b6" stop-opacity="0"/></linearGradient>
<linearGradient id="g-gatsby" x1="0" x2="0" y1="0" y2="1"><stop offset="0" stop-color="#a78bfa" stop-opacity="0.18"/><stop offset="1" stop-color="#a78bfa" stop-opacity="0"/></linearGradient>
<linearGradient id="g-astro" x1="0" x2="0" y1="0" y2="1"><stop offset="0" stop-color="#fb923c" stop-opacity="0.18"/><stop offset="1" stop-color="#fb923c" stop-opacity="0"/></linearGradient>
</defs>
<rect width="1200" height="700" fill="#0a0a0b"/>
<text x="110" y="50" font-size="11" font-weight="600" letter-spacing="1.2" fill="#60a5fa">SSG BENCHMARK</text>
<text x="110" y="80" font-size="26" font-weight="700" letter-spacing="-0.4" fill="#fafafa">Peak resident memory</text>
<text x="110" y="102" font-size="13" font-weight="400" fill="#a1a1aa">Best successful run per cell · 7 page counts × 5 frameworks</text>
<line x1="110" x2="940" y1="570.0" y2="570.0" stroke="#3f3f46" stroke-width="1" stroke-dasharray=""/>
<line x1="110" x2="940" y1="420.0" y2="420.0" stroke="#1f1f22" stroke-width="1" stroke-dasharray="3 3"/>
<line x1="110" x2="940" y1="270.0" y2="270.0" stroke="#1f1f22" stroke-width="1" stroke-dasharray="3 3"/>
<line x1="110" x2="940" y1="120.0" y2="120.0" stroke="#1f1f22" stroke-width="1" stroke-dasharray="3 3"/>
<text x="98" y="574.0" font-size="11" text-anchor="end" fill="#a1a1aa" font-variant-numeric="tabular-nums">95MiB</text>
<text x="98" y="424.0" font-size="11" text-anchor="end" fill="#a1a1aa" font-variant-numeric="tabular-nums">954MiB</text>
<text x="98" y="274.0" font-size="11" text-anchor="end" fill="#a1a1aa" font-variant-numeric="tabular-nums">9.3GiB</text>
<text x="98" y="124.0" font-size="11" text-anchor="end" fill="#a1a1aa" font-variant-numeric="tabular-nums">93.1GiB</text>
<line x1="110" x2="940" y1="570" y2="570" stroke="#3f3f46" stroke-width="1.25"/>
<line x1="110.0" x2="110.0" y1="570" y2="576" stroke="#a1a1aa" stroke-width="1"/>
<text x="110.0" y="586" font-size="11" text-anchor="end" fill="#a1a1aa" font-variant-numeric="tabular-nums" transform="rotate(-35 110.0 586)">1k</text>
<line x1="417.5" x2="417.5" y1="570" y2="576" stroke="#a1a1aa" stroke-width="1"/>
<text x="417.5" y="586" font-size="11" text-anchor="end" fill="#a1a1aa" font-variant-numeric="tabular-nums" transform="rotate(-35 417.5 586)">10k</text>
<line x1="725.0" x2="725.0" y1="570" y2="576" stroke="#a1a1aa" stroke-width="1"/>
<text x="725.0" y="586" font-size="11" text-anchor="end" fill="#a1a1aa" font-variant-numeric="tabular-nums" transform="rotate(-35 725.0 586)">100k</text>
<line x1="817.6" x2="817.6" y1="570" y2="576" stroke="#a1a1aa" stroke-width="1"/>
<text x="817.6" y="586" font-size="11" text-anchor="end" fill="#a1a1aa" font-variant-numeric="tabular-nums" transform="rotate(-35 817.6 586)">200k</text>
<line x1="871.8" x2="871.8" y1="570" y2="576" stroke="#a1a1aa" stroke-width="1"/>
<text x="871.8" y="586" font-size="11" text-anchor="end" fill="#a1a1aa" font-variant-numeric="tabular-nums" transform="rotate(-35 871.8 586)">300k</text>
<line x1="910.2" x2="910.2" y1="570" y2="576" stroke="#a1a1aa" stroke-width="1"/>
<text x="910.2" y="586" font-size="11" text-anchor="end" fill="#a1a1aa" font-variant-numeric="tabular-nums" transform="rotate(-35 910.2 586)">400k</text>
<line x1="940.0" x2="940.0" y1="570" y2="576" stroke="#a1a1aa" stroke-width="1"/>
<text x="940.0" y="586" font-size="11" text-anchor="end" fill="#a1a1aa" font-variant-numeric="tabular-nums" transform="rotate(-35 940.0 586)">500k</text>
<text x="525.0" y="650" font-size="12" font-weight="500" text-anchor="middle" fill="#d4d4d8">PAGE_COUNT (log scale)</text>
<text x="34" y="345.0" font-size="12" font-weight="500" text-anchor="middle" fill="#d4d4d8" transform="rotate(-90 34 345.0)">peak RSS</text>
<path d="M110.0,570 L110.0,405.6 L417.5,363.8 L725.0,356.6 L817.6,356.2 L871.8,354.7 L910.2,353.5 L940.0,353.7 L940.0,570 Z" fill="url(#g-react-server)" stroke="none"/>
<polyline points="110.0,405.6 417.5,363.8 725.0,356.6 817.6,356.2 871.8,354.7 910.2,353.5 940.0,353.7" fill="none" stroke="#60a5fa" stroke-width="2.75" stroke-linecap="round" stroke-linejoin="round"/>
<circle cx="110.0" cy="405.6" r="7.5" fill="#0a0a0b" stroke="none"/>
<circle cx="110.0" cy="405.6" r="5" fill="#60a5fa" stroke="#0a0a0b" stroke-width="1.5"/>
<circle cx="417.5" cy="363.8" r="7.5" fill="#0a0a0b" stroke="none"/>
<circle cx="417.5" cy="363.8" r="5" fill="#60a5fa" stroke="#0a0a0b" stroke-width="1.5"/>
<circle cx="725.0" cy="356.6" r="7.5" fill="#0a0a0b" stroke="none"/>
<circle cx="725.0" cy="356.6" r="5" fill="#60a5fa" stroke="#0a0a0b" stroke-width="1.5"/>
<circle cx="817.6" cy="356.2" r="7.5" fill="#0a0a0b" stroke="none"/>
<circle cx="817.6" cy="356.2" r="5" fill="#60a5fa" stroke="#0a0a0b" stroke-width="1.5"/>
<circle cx="871.8" cy="354.7" r="7.5" fill="#0a0a0b" stroke="none"/>
<circle cx="871.8" cy="354.7" r="5" fill="#60a5fa" stroke="#0a0a0b" stroke-width="1.5"/>
<circle cx="910.2" cy="353.5" r="7.5" fill="#0a0a0b" stroke="none"/>
<circle cx="910.2" cy="353.5" r="5" fill="#60a5fa" stroke="#0a0a0b" stroke-width="1.5"/>
<circle cx="940.0" cy="353.7" r="7.5" fill="#0a0a0b" stroke="none"/>
<circle cx="940.0" cy="353.7" r="5" fill="#60a5fa" stroke="#0a0a0b" stroke-width="1.5"/>
<path d="M110.0,570 L110.0,392.6 L417.5,371.7 L725.0,319.8 L725.0,570 Z" fill="url(#g-next)" stroke="none"/>
<polyline points="110.0,392.6 417.5,371.7 725.0,319.8" fill="none" stroke="#f4f4f5" stroke-width="2.75" stroke-linecap="round" stroke-linejoin="round"/>
<circle cx="110.0" cy="392.6" r="7.5" fill="#0a0a0b" stroke="none"/>
<circle cx="110.0" cy="392.6" r="5" fill="#f4f4f5" stroke="#0a0a0b" stroke-width="1.5"/>
<circle cx="417.5" cy="371.7" r="7.5" fill="#0a0a0b" stroke="none"/>
<circle cx="417.5" cy="371.7" r="5" fill="#f4f4f5" stroke="#0a0a0b" stroke-width="1.5"/>
<circle cx="725.0" cy="319.8" r="7.5" fill="#0a0a0b" stroke="none"/>
<circle cx="725.0" cy="319.8" r="5" fill="#f4f4f5" stroke="#0a0a0b" stroke-width="1.5"/>
<path d="M110.0,570 L110.0,449.9 L417.5,421.9 L725.0,383.8 L817.6,357.8 L871.8,346.4 L910.2,332.2 L940.0,341.3 L940.0,570 Z" fill="url(#g-tanstack)" stroke="none"/>
<polyline points="110.0,449.9 417.5,421.9 725.0,383.8 817.6,357.8 871.8,346.4 910.2,332.2 940.0,341.3" fill="none" stroke="#f472b6" stroke-width="2.75" stroke-linecap="round" stroke-linejoin="round"/>
<circle cx="110.0" cy="449.9" r="7.5" fill="#0a0a0b" stroke="none"/>
<circle cx="110.0" cy="449.9" r="5" fill="#f472b6" stroke="#0a0a0b" stroke-width="1.5"/>
<circle cx="417.5" cy="421.9" r="7.5" fill="#0a0a0b" stroke="none"/>
<circle cx="417.5" cy="421.9" r="5" fill="#f472b6" stroke="#0a0a0b" stroke-width="1.5"/>
<circle cx="725.0" cy="383.8" r="7.5" fill="#0a0a0b" stroke="none"/>
<circle cx="725.0" cy="383.8" r="5" fill="#f472b6" stroke="#0a0a0b" stroke-width="1.5"/>
<circle cx="817.6" cy="357.8" r="7.5" fill="#0a0a0b" stroke="none"/>
<circle cx="817.6" cy="357.8" r="5" fill="#f472b6" stroke="#0a0a0b" stroke-width="1.5"/>
<circle cx="871.8" cy="346.4" r="7.5" fill="#0a0a0b" stroke="none"/>
<circle cx="871.8" cy="346.4" r="5" fill="#f472b6" stroke="#0a0a0b" stroke-width="1.5"/>
<circle cx="910.2" cy="332.2" r="7.5" fill="#0a0a0b" stroke="none"/>
<circle cx="910.2" cy="332.2" r="5" fill="#f472b6" stroke="#0a0a0b" stroke-width="1.5"/>
<circle cx="940.0" cy="341.3" r="7.5" fill="#0a0a0b" stroke="none"/>
<circle cx="940.0" cy="341.3" r="5" fill="#f472b6" stroke="#0a0a0b" stroke-width="1.5"/>
<path d="M110.0,570 L110.0,324.2 L417.5,318.8 L725.0,299.9 L817.6,293.7 L871.8,287.5 L910.2,269.8 L940.0,268.4 L940.0,570 Z" fill="url(#g-gatsby)" stroke="none"/>
<polyline points="110.0,324.2 417.5,318.8 725.0,299.9 817.6,293.7 871.8,287.5 910.2,269.8 940.0,268.4" fill="none" stroke="#a78bfa" stroke-width="2.75" stroke-linecap="round" stroke-linejoin="round"/>
<circle cx="110.0" cy="324.2" r="7.5" fill="#0a0a0b" stroke="none"/>
<circle cx="110.0" cy="324.2" r="5" fill="#a78bfa" stroke="#0a0a0b" stroke-width="1.5"/>
<circle cx="417.5" cy="318.8" r="7.5" fill="#0a0a0b" stroke="none"/>
<circle cx="417.5" cy="318.8" r="5" fill="#a78bfa" stroke="#0a0a0b" stroke-width="1.5"/>
<circle cx="725.0" cy="299.9" r="7.5" fill="#0a0a0b" stroke="none"/>
<circle cx="725.0" cy="299.9" r="5" fill="#a78bfa" stroke="#0a0a0b" stroke-width="1.5"/>
<circle cx="817.6" cy="293.7" r="7.5" fill="#0a0a0b" stroke="none"/>
<circle cx="817.6" cy="293.7" r="5" fill="#a78bfa" stroke="#0a0a0b" stroke-width="1.5"/>
<circle cx="871.8" cy="287.5" r="7.5" fill="#0a0a0b" stroke="none"/>
<circle cx="871.8" cy="287.5" r="5" fill="#a78bfa" stroke="#0a0a0b" stroke-width="1.5"/>
<circle cx="910.2" cy="269.8" r="7.5" fill="#0a0a0b" stroke="none"/>
<circle cx="910.2" cy="269.8" r="5" fill="#a78bfa" stroke="#0a0a0b" stroke-width="1.5"/>
<circle cx="940.0" cy="268.4" r="7.5" fill="#0a0a0b" stroke="none"/>
<circle cx="940.0" cy="268.4" r="5" fill="#a78bfa" stroke="#0a0a0b" stroke-width="1.5"/>
<path d="M110.0,570 L110.0,450.5 L417.5,446.1 L725.0,421.9 L817.6,404.7 L871.8,390.0 L910.2,382.4 L940.0,376.5 L940.0,570 Z" fill="url(#g-astro)" stroke="none"/>
<polyline points="110.0,450.5 417.5,446.1 725.0,421.9 817.6,404.7 871.8,390.0 910.2,382.4 940.0,376.5" fill="none" stroke="#fb923c" stroke-width="2.75" stroke-linecap="round" stroke-linejoin="round"/>
<circle cx="110.0" cy="450.5" r="7.5" fill="#0a0a0b" stroke="none"/>
<circle cx="110.0" cy="450.5" r="5" fill="#fb923c" stroke="#0a0a0b" stroke-width="1.5"/>
<circle cx="417.5" cy="446.1" r="7.5" fill="#0a0a0b" stroke="none"/>
<circle cx="417.5" cy="446.1" r="5" fill="#fb923c" stroke="#0a0a0b" stroke-width="1.5"/>
<circle cx="725.0" cy="421.9" r="7.5" fill="#0a0a0b" stroke="none"/>
<circle cx="725.0" cy="421.9" r="5" fill="#fb923c" stroke="#0a0a0b" stroke-width="1.5"/>
<circle cx="817.6" cy="404.7" r="7.5" fill="#0a0a0b" stroke="none"/>
<circle cx="817.6" cy="404.7" r="5" fill="#fb923c" stroke="#0a0a0b" stroke-width="1.5"/>
<circle cx="871.8" cy="390.0" r="7.5" fill="#0a0a0b" stroke="none"/>
<circle cx="871.8" cy="390.0" r="5" fill="#fb923c" stroke="#0a0a0b" stroke-width="1.5"/>
<circle cx="910.2" cy="382.4" r="7.5" fill="#0a0a0b" stroke="none"/>
<circle cx="910.2" cy="382.4" r="5" fill="#fb923c" stroke="#0a0a0b" stroke-width="1.5"/>
<circle cx="940.0" cy="376.5" r="7.5" fill="#0a0a0b" stroke="none"/>
<circle cx="940.0" cy="376.5" r="5" fill="#fb923c" stroke="#0a0a0b" stroke-width="1.5"/>
<line x1="972" x2="1000" y1="131" y2="131" stroke="#60a5fa" stroke-width="2.75" stroke-linecap="round"/>
<circle cx="986" cy="131" r="5" fill="#60a5fa" stroke="#0a0a0b" stroke-width="1.5"/>
<text x="1012" y="135" font-size="13" font-weight="500" fill="#fafafa">react-server</text>
<line x1="972" x2="1000" y1="159" y2="159" stroke="#f4f4f5" stroke-width="2.75" stroke-linecap="round"/>
<circle cx="986" cy="159" r="5" fill="#f4f4f5" stroke="#0a0a0b" stroke-width="1.5"/>
<text x="1012" y="163" font-size="13" font-weight="500" fill="#fafafa">Next.js</text>
<line x1="972" x2="1000" y1="187" y2="187" stroke="#f472b6" stroke-width="2.75" stroke-linecap="round"/>
<circle cx="986" cy="187" r="5" fill="#f472b6" stroke="#0a0a0b" stroke-width="1.5"/>
<text x="1012" y="191" font-size="13" font-weight="500" fill="#fafafa">TanStack Start</text>
<line x1="972" x2="1000" y1="215" y2="215" stroke="#a78bfa" stroke-width="2.75" stroke-linecap="round"/>
<circle cx="986" cy="215" r="5" fill="#a78bfa" stroke="#0a0a0b" stroke-width="1.5"/>
<text x="1012" y="219" font-size="13" font-weight="500" fill="#fafafa">Gatsby</text>
<line x1="972" x2="1000" y1="243" y2="243" stroke="#fb923c" stroke-width="2.75" stroke-linecap="round"/>
<circle cx="986" cy="243" r="5" fill="#fb923c" stroke="#0a0a0b" stroke-width="1.5"/>
<text x="1012" y="247" font-size="13" font-weight="500" fill="#fafafa">Astro</text>
<text x="940" y="682" font-size="11" font-weight="400" text-anchor="end" fill="#71717a">Generated 2026-05-02 22:17 UTC · 35 runs from 7 result files</text>
</svg>
