<svg xmlns="http://www.w3.org/2000/svg" viewBox="0 0 1200 700" width="1200" height="700" font-family="ui-sans-serif, system-ui, -apple-system, BlinkMacSystemFont, 'Inter var', 'Inter', 'Segoe UI', Helvetica, Arial, sans-serif" text-rendering="geometricPrecision" shape-rendering="geometricPrecision">
<defs>
<linearGradient id="g-react-server" x1="0" x2="0" y1="0" y2="1"><stop offset="0" stop-color="#60a5fa" stop-opacity="0.18"/><stop offset="1" stop-color="#60a5fa" stop-opacity="0"/></linearGradient>
<linearGradient id="g-next" x1="0" x2="0" y1="0" y2="1"><stop offset="0" stop-color="#f4f4f5" stop-opacity="0.18"/><stop offset="1" stop-color="#f4f4f5" stop-opacity="0"/></linearGradient>
<linearGradient id="g-tanstack" x1="0" x2="0" y1="0" y2="1"><stop offset="0" stop-color="#f472b6" stop-opacity="0.18"/><stop offset="1" stop-color="#f472b6" stop-opacity="0"/></linearGradient>
<linearGradient id="g-gatsby" x1="0" x2="0" y1="0" y2="1"><stop offset="0" stop-color="#a78bfa" stop-opacity="0.18"/><stop offset="1" stop-color="#a78bfa" stop-opacity="0"/></linearGradient>
<linearGradient id="g-astro" x1="0" x2="0" y1="0" y2="1"><stop offset="0" stop-color="#fb923c" stop-opacity="0.18"/><stop offset="1" stop-color="#fb923c" stop-opacity="0"/></linearGradient>
</defs>
<rect width="1200" height="700" fill="#0a0a0b"/>
<text x="110" y="50" font-size="11" font-weight="600" letter-spacing="1.2" fill="#60a5fa">SSG BENCHMARK</text>
<text x="110" y="80" font-size="26" font-weight="700" letter-spacing="-0.4" fill="#fafafa">Time to first page</text>
<text x="110" y="102" font-size="13" font-weight="400" fill="#a1a1aa">Best successful run per cell · 7 page counts × 5 frameworks</text>
<line x1="110" x2="940" y1="570.0" y2="570.0" stroke="#3f3f46" stroke-width="1" stroke-dasharray=""/>
<line x1="110" x2="940" y1="420.0" y2="420.0" stroke="#1f1f22" stroke-width="1" stroke-dasharray="3 3"/>
<line x1="110" x2="940" y1="270.0" y2="270.0" stroke="#1f1f22" stroke-width="1" stroke-dasharray="3 3"/>
<line x1="110" x2="940" y1="120.0" y2="120.0" stroke="#1f1f22" stroke-width="1" stroke-dasharray="3 3"/>
<text x="98" y="574.0" font-size="11" text-anchor="end" fill="#a1a1aa" font-variant-numeric="tabular-nums">1.0s</text>
<text x="98" y="424.0" font-size="11" text-anchor="end" fill="#a1a1aa" font-variant-numeric="tabular-nums">10.0s</text>
<text x="98" y="274.0" font-size="11" text-anchor="end" fill="#a1a1aa" font-variant-numeric="tabular-nums">2m</text>
<text x="98" y="124.0" font-size="11" text-anchor="end" fill="#a1a1aa" font-variant-numeric="tabular-nums">17m</text>
<line x1="110" x2="940" y1="570" y2="570" stroke="#3f3f46" stroke-width="1.25"/>
<line x1="110.0" x2="110.0" y1="570" y2="576" stroke="#a1a1aa" stroke-width="1"/>
<text x="110.0" y="586" font-size="11" text-anchor="end" fill="#a1a1aa" font-variant-numeric="tabular-nums" transform="rotate(-35 110.0 586)">1k</text>
<line x1="417.5" x2="417.5" y1="570" y2="576" stroke="#a1a1aa" stroke-width="1"/>
<text x="417.5" y="586" font-size="11" text-anchor="end" fill="#a1a1aa" font-variant-numeric="tabular-nums" transform="rotate(-35 417.5 586)">10k</text>
<line x1="725.0" x2="725.0" y1="570" y2="576" stroke="#a1a1aa" stroke-width="1"/>
<text x="725.0" y="586" font-size="11" text-anchor="end" fill="#a1a1aa" font-variant-numeric="tabular-nums" transform="rotate(-35 725.0 586)">100k</text>
<line x1="817.6" x2="817.6" y1="570" y2="576" stroke="#a1a1aa" stroke-width="1"/>
<text x="817.6" y="586" font-size="11" text-anchor="end" fill="#a1a1aa" font-variant-numeric="tabular-nums" transform="rotate(-35 817.6 586)">200k</text>
<line x1="871.8" x2="871.8" y1="570" y2="576" stroke="#a1a1aa" stroke-width="1"/>
<text x="871.8" y="586" font-size="11" text-anchor="end" fill="#a1a1aa" font-variant-numeric="tabular-nums" transform="rotate(-35 871.8 586)">300k</text>
<line x1="910.2" x2="910.2" y1="570" y2="576" stroke="#a1a1aa" stroke-width="1"/>
<text x="910.2" y="586" font-size="11" text-anchor="end" fill="#a1a1aa" font-variant-numeric="tabular-nums" transform="rotate(-35 910.2 586)">400k</text>
<line x1="940.0" x2="940.0" y1="570" y2="576" stroke="#a1a1aa" stroke-width="1"/>
<text x="940.0" y="586" font-size="11" text-anchor="end" fill="#a1a1aa" font-variant-numeric="tabular-nums" transform="rotate(-35 940.0 586)">500k</text>
<text x="525.0" y="650" font-size="12" font-weight="500" text-anchor="middle" fill="#d4d4d8">PAGE_COUNT (log scale)</text>
<text x="34" y="345.0" font-size="12" font-weight="500" text-anchor="middle" fill="#d4d4d8" transform="rotate(-90 34 345.0)">ttfp</text>
<path d="M110.0,570 L110.0,549.8 L417.5,549.3 L725.0,538.3 L817.6,521.2 L871.8,514.2 L910.2,494.7 L940.0,501.4 L940.0,570 Z" fill="url(#g-react-server)" stroke="none"/>
<polyline points="110.0,549.8 417.5,549.3 725.0,538.3 817.6,521.2 871.8,514.2 910.2,494.7 940.0,501.4" fill="none" stroke="#60a5fa" stroke-width="2.75" stroke-linecap="round" stroke-linejoin="round"/>
<circle cx="110.0" cy="549.8" r="7.5" fill="#0a0a0b" stroke="none"/>
<circle cx="110.0" cy="549.8" r="5" fill="#60a5fa" stroke="#0a0a0b" stroke-width="1.5"/>
<circle cx="417.5" cy="549.3" r="7.5" fill="#0a0a0b" stroke="none"/>
<circle cx="417.5" cy="549.3" r="5" fill="#60a5fa" stroke="#0a0a0b" stroke-width="1.5"/>
<circle cx="725.0" cy="538.3" r="7.5" fill="#0a0a0b" stroke="none"/>
<circle cx="725.0" cy="538.3" r="5" fill="#60a5fa" stroke="#0a0a0b" stroke-width="1.5"/>
<circle cx="817.6" cy="521.2" r="7.5" fill="#0a0a0b" stroke="none"/>
<circle cx="817.6" cy="521.2" r="5" fill="#60a5fa" stroke="#0a0a0b" stroke-width="1.5"/>
<circle cx="871.8" cy="514.2" r="7.5" fill="#0a0a0b" stroke="none"/>
<circle cx="871.8" cy="514.2" r="5" fill="#60a5fa" stroke="#0a0a0b" stroke-width="1.5"/>
<circle cx="910.2" cy="494.7" r="7.5" fill="#0a0a0b" stroke="none"/>
<circle cx="910.2" cy="494.7" r="5" fill="#60a5fa" stroke="#0a0a0b" stroke-width="1.5"/>
<circle cx="940.0" cy="501.4" r="7.5" fill="#0a0a0b" stroke="none"/>
<circle cx="940.0" cy="501.4" r="5" fill="#60a5fa" stroke="#0a0a0b" stroke-width="1.5"/>
<path d="M110.0,570 L110.0,501.3 L417.5,407.1 L725.0,256.0 L725.0,570 Z" fill="url(#g-next)" stroke="none"/>
<polyline points="110.0,501.3 417.5,407.1 725.0,256.0" fill="none" stroke="#f4f4f5" stroke-width="2.75" stroke-linecap="round" stroke-linejoin="round"/>
<circle cx="110.0" cy="501.3" r="7.5" fill="#0a0a0b" stroke="none"/>
<circle cx="110.0" cy="501.3" r="5" fill="#f4f4f5" stroke="#0a0a0b" stroke-width="1.5"/>
<circle cx="417.5" cy="407.1" r="7.5" fill="#0a0a0b" stroke="none"/>
<circle cx="417.5" cy="407.1" r="5" fill="#f4f4f5" stroke="#0a0a0b" stroke-width="1.5"/>
<circle cx="725.0" cy="256.0" r="7.5" fill="#0a0a0b" stroke="none"/>
<circle cx="725.0" cy="256.0" r="5" fill="#f4f4f5" stroke="#0a0a0b" stroke-width="1.5"/>
<path d="M110.0,570 L110.0,539.5 L417.5,529.7 L725.0,506.4 L817.6,477.9 L871.8,473.8 L910.2,427.4 L940.0,444.0 L940.0,570 Z" fill="url(#g-tanstack)" stroke="none"/>
<polyline points="110.0,539.5 417.5,529.7 725.0,506.4 817.6,477.9 871.8,473.8 910.2,427.4 940.0,444.0" fill="none" stroke="#f472b6" stroke-width="2.75" stroke-linecap="round" stroke-linejoin="round"/>
<circle cx="110.0" cy="539.5" r="7.5" fill="#0a0a0b" stroke="none"/>
<circle cx="110.0" cy="539.5" r="5" fill="#f472b6" stroke="#0a0a0b" stroke-width="1.5"/>
<circle cx="417.5" cy="529.7" r="7.5" fill="#0a0a0b" stroke="none"/>
<circle cx="417.5" cy="529.7" r="5" fill="#f472b6" stroke="#0a0a0b" stroke-width="1.5"/>
<circle cx="725.0" cy="506.4" r="7.5" fill="#0a0a0b" stroke="none"/>
<circle cx="725.0" cy="506.4" r="5" fill="#f472b6" stroke="#0a0a0b" stroke-width="1.5"/>
<circle cx="817.6" cy="477.9" r="7.5" fill="#0a0a0b" stroke="none"/>
<circle cx="817.6" cy="477.9" r="5" fill="#f472b6" stroke="#0a0a0b" stroke-width="1.5"/>
<circle cx="871.8" cy="473.8" r="7.5" fill="#0a0a0b" stroke="none"/>
<circle cx="871.8" cy="473.8" r="5" fill="#f472b6" stroke="#0a0a0b" stroke-width="1.5"/>
<circle cx="910.2" cy="427.4" r="7.5" fill="#0a0a0b" stroke="none"/>
<circle cx="910.2" cy="427.4" r="5" fill="#f472b6" stroke="#0a0a0b" stroke-width="1.5"/>
<circle cx="940.0" cy="444.0" r="7.5" fill="#0a0a0b" stroke="none"/>
<circle cx="940.0" cy="444.0" r="5" fill="#f472b6" stroke="#0a0a0b" stroke-width="1.5"/>
<path d="M110.0,570 L110.0,462.5 L417.5,453.4 L725.0,435.3 L817.6,300.3 L871.8,275.1 L910.2,269.1 L940.0,371.2 L940.0,570 Z" fill="url(#g-gatsby)" stroke="none"/>
<polyline points="110.0,462.5 417.5,453.4 725.0,435.3 817.6,300.3 871.8,275.1 910.2,269.1 940.0,371.2" fill="none" stroke="#a78bfa" stroke-width="2.75" stroke-linecap="round" stroke-linejoin="round"/>
<circle cx="110.0" cy="462.5" r="7.5" fill="#0a0a0b" stroke="none"/>
<circle cx="110.0" cy="462.5" r="5" fill="#a78bfa" stroke="#0a0a0b" stroke-width="1.5"/>
<circle cx="417.5" cy="453.4" r="7.5" fill="#0a0a0b" stroke="none"/>
<circle cx="417.5" cy="453.4" r="5" fill="#a78bfa" stroke="#0a0a0b" stroke-width="1.5"/>
<circle cx="725.0" cy="435.3" r="7.5" fill="#0a0a0b" stroke="none"/>
<circle cx="725.0" cy="435.3" r="5" fill="#a78bfa" stroke="#0a0a0b" stroke-width="1.5"/>
<circle cx="817.6" cy="300.3" r="7.5" fill="#0a0a0b" stroke="none"/>
<circle cx="817.6" cy="300.3" r="5" fill="#a78bfa" stroke="#0a0a0b" stroke-width="1.5"/>
<circle cx="871.8" cy="275.1" r="7.5" fill="#0a0a0b" stroke="none"/>
<circle cx="871.8" cy="275.1" r="5" fill="#a78bfa" stroke="#0a0a0b" stroke-width="1.5"/>
<circle cx="910.2" cy="269.1" r="7.5" fill="#0a0a0b" stroke="none"/>
<circle cx="910.2" cy="269.1" r="5" fill="#a78bfa" stroke="#0a0a0b" stroke-width="1.5"/>
<circle cx="940.0" cy="371.2" r="7.5" fill="#0a0a0b" stroke="none"/>
<circle cx="940.0" cy="371.2" r="5" fill="#a78bfa" stroke="#0a0a0b" stroke-width="1.5"/>
<path d="M110.0,570 L110.0,534.0 L417.5,528.0 L725.0,519.3 L817.6,499.5 L871.8,501.1 L910.2,481.7 L940.0,486.3 L940.0,570 Z" fill="url(#g-astro)" stroke="none"/>
<polyline points="110.0,534.0 417.5,528.0 725.0,519.3 817.6,499.5 871.8,501.1 910.2,481.7 940.0,486.3" fill="none" stroke="#fb923c" stroke-width="2.75" stroke-linecap="round" stroke-linejoin="round"/>
<circle cx="110.0" cy="534.0" r="7.5" fill="#0a0a0b" stroke="none"/>
<circle cx="110.0" cy="534.0" r="5" fill="#fb923c" stroke="#0a0a0b" stroke-width="1.5"/>
<circle cx="417.5" cy="528.0" r="7.5" fill="#0a0a0b" stroke="none"/>
<circle cx="417.5" cy="528.0" r="5" fill="#fb923c" stroke="#0a0a0b" stroke-width="1.5"/>
<circle cx="725.0" cy="519.3" r="7.5" fill="#0a0a0b" stroke="none"/>
<circle cx="725.0" cy="519.3" r="5" fill="#fb923c" stroke="#0a0a0b" stroke-width="1.5"/>
<circle cx="817.6" cy="499.5" r="7.5" fill="#0a0a0b" stroke="none"/>
<circle cx="817.6" cy="499.5" r="5" fill="#fb923c" stroke="#0a0a0b" stroke-width="1.5"/>
<circle cx="871.8" cy="501.1" r="7.5" fill="#0a0a0b" stroke="none"/>
<circle cx="871.8" cy="501.1" r="5" fill="#fb923c" stroke="#0a0a0b" stroke-width="1.5"/>
<circle cx="910.2" cy="481.7" r="7.5" fill="#0a0a0b" stroke="none"/>
<circle cx="910.2" cy="481.7" r="5" fill="#fb923c" stroke="#0a0a0b" stroke-width="1.5"/>
<circle cx="940.0" cy="486.3" r="7.5" fill="#0a0a0b" stroke="none"/>
<circle cx="940.0" cy="486.3" r="5" fill="#fb923c" stroke="#0a0a0b" stroke-width="1.5"/>
<line x1="972" x2="1000" y1="131" y2="131" stroke="#60a5fa" stroke-width="2.75" stroke-linecap="round"/>
<circle cx="986" cy="131" r="5" fill="#60a5fa" stroke="#0a0a0b" stroke-width="1.5"/>
<text x="1012" y="135" font-size="13" font-weight="500" fill="#fafafa">react-server</text>
<line x1="972" x2="1000" y1="159" y2="159" stroke="#f4f4f5" stroke-width="2.75" stroke-linecap="round"/>
<circle cx="986" cy="159" r="5" fill="#f4f4f5" stroke="#0a0a0b" stroke-width="1.5"/>
<text x="1012" y="163" font-size="13" font-weight="500" fill="#fafafa">Next.js</text>
<line x1="972" x2="1000" y1="187" y2="187" stroke="#f472b6" stroke-width="2.75" stroke-linecap="round"/>
<circle cx="986" cy="187" r="5" fill="#f472b6" stroke="#0a0a0b" stroke-width="1.5"/>
<text x="1012" y="191" font-size="13" font-weight="500" fill="#fafafa">TanStack Start</text>
<line x1="972" x2="1000" y1="215" y2="215" stroke="#a78bfa" stroke-width="2.75" stroke-linecap="round"/>
<circle cx="986" cy="215" r="5" fill="#a78bfa" stroke="#0a0a0b" stroke-width="1.5"/>
<text x="1012" y="219" font-size="13" font-weight="500" fill="#fafafa">Gatsby</text>
<line x1="972" x2="1000" y1="243" y2="243" stroke="#fb923c" stroke-width="2.75" stroke-linecap="round"/>
<circle cx="986" cy="243" r="5" fill="#fb923c" stroke="#0a0a0b" stroke-width="1.5"/>
<text x="1012" y="247" font-size="13" font-weight="500" fill="#fafafa">Astro</text>
<text x="940" y="682" font-size="11" font-weight="400" text-anchor="end" fill="#71717a">Generated 2026-05-02 22:17 UTC · 35 runs from 7 result files</text>
</svg>
